{"title":"Clear History 2013 DVDrip English Klam","uid":11132804,"size":1805981456,"categoryP":"video","categoryS":"movies","magnet":"?xt=urn:btih:21bd686c5f1cc117702bac9f2cb2c4ca86535d36&amp;dn=Clear+History+2013+DVDrip+English+Klam&amp;tr=udp%3A%2F%2Ftracker.openbittorrent.com%3A80&amp;tr=udp%3A%2F%2Fopen.demonii.com%3A1337&amp;tr=udp%3A%2F%2Ftracker.coppersurfer.tk%3A6969&amp;tr=udp%3A%2F%2Fexodus.desync.com%3A6969","seeders":1,"leechers":1,"uploader":"Klambake","files":-1,"time":1412076158,"description":"With: Larry David, Eva Mendes and Kate Hudson\n\nHippie Nathan (Larry David), een voormalig marketeer, besluit na een flinke ruzie met zijn baas (Jon Hamm) alle aandelen van het bedrijf te verkopen. Op deze manier hoopt hij dat de onderneming miljarden misloopt nu het net succes lijkt te boeken met een elektrische auto.\n\nA disgraced former marketing executive plots revenge against his former boss, who made billions from the electric car company they started.\n &lt;a href=&quot;\nhttp://www.imdb.com/title/tt2279864&quot; rel=&quot;nofollow&quot; target=&quot;_NEW&quot;&gt;\nhttp://www.imdb.com/title/tt2279864&lt;/a&gt;\t\n\n--------------------- Dutch Friends 4ever ---------------------\n---------------------------------------------------------------\n- Bezoek ook eens mijn vrienden op: &lt;a href=&quot; http://www.Film-Test.nl&quot; rel=&quot;nofollow&quot; target=&quot;_NEW&quot;&gt; http://www.Film-Test.nl&lt;/a&gt; --\n----- voor mijn Nederlandse Sync. ondertitels ---- en meer ----\n------- http://www.Film-Test.nl ---- Over Films en meer -------\n---------------------------------------------------------------\n &lt;a href=&quot;\nhttp://i.imgur.com/uV96JVD.jpg&quot; rel=&quot;nofollow&quot; target=&quot;_NEW&quot;&gt;\nhttp://i.imgur.com/uV96JVD.jpg&lt;/a&gt; &lt;a href=&quot;\nhttp://i.imgur.com/l3QXX75.jpg&quot; rel=&quot;nofollow&quot; target=&quot;_NEW&quot;&gt;\nhttp://i.imgur.com/l3QXX75.jpg&lt;/a&gt; &lt;a href=&quot;\nhttp://i.imgur.com/h1C07Zg.jpg&quot; rel=&quot;nofollow&quot; target=&quot;_NEW&quot;&gt;\nhttp://i.imgur.com/h1C07Zg.jpg&lt;/a&gt;\n\nGeneral:\n\nComplete name                            : Clear HistoryClear History.avi\nFormat                                   : AVI\nFormat/Info                              : Audio Video Interleave\nFile size                                : 1.68 GiB\nDuration                                 : 1h 36mn\nOverall bit rate                         : 2 507 Kbps\n\nVideo:\n\nFormat                                   : MPEG-4 Visual\nFormat profile                           : Simple@L3\nFormat settings, BVOP                    : No\nFormat settings, QPel                    : No\nFormat settings, GMC                     : No warppoints\nFormat settings, Matrix                  : Default (H.263)\nCodec ID                                 : XVID\nCodec ID/Hint                            : XviD\nDuration                                 : 1h 36mn\nBit rate                                 : 2 049 Kbps\nWidth                                    : 652 pixels\nHeight                                   : 352 pixels\nDisplay aspect ratio                     : 1.85:1\nFrame rate                               : 25.000 fps\nColor space                              : YUV\nChroma subsampling                       : 4:2:0\nBit depth                                : 8 bits\nScan type                                : Progressive\nCompression mode                         : Lossy\nBits/(Pixel*Frame)                       : 0.357\nStream size                              : 1.37 GiB (82%)\nWriting library                          : XviD 1.1.2 (UTC 2006-11-01)\n\nAudio:\n\nFormat                                   : AC-3\nFormat/Info                              : Audio Coding 3\nMode extension                           : CM (complete main)\nFormat settings, Endianness              : Big\nCodec ID                                 : 2000\nDuration                                 : 1h 36mn\nSource duration                          : 1h 36mn\nBit rate mode                            : Constant\nBit rate                                 : 448 Kbps\nChannel(s)                               : 6 channels\nChannel positions                        : Front: L C R, Side: L R, LFE\nSampling rate                            : 48.0 KHz\nBit depth                                : 16 bits\nCompression mode                         : Lossy\nStream size                              : 308 MiB (18%)\nAlignment                                : Aligned on interleaves\nInterleave, duration                     : 32 ms (0.80 video frame)\n\n\n","torrent":{"xt":"urn:btih:21bd686c5f1cc117702bac9f2cb2c4ca86535d36","amp;dn":"Clear+History+2013+DVDrip+English+Klam","amp;tr":["udp%3A%2F%2Ftracker.openbittorrent.com%3A80","udp%3A%2F%2Fopen.demonii.com%3A1337","udp%3A%2F%2Ftracker.coppersurfer.tk%3A6969","udp%3A%2F%2Fexodus.desync.com%3A6969"],"infoHash":"21bd686c5f1cc117702bac9f2cb2c4ca86535d36","infoHashBuffer":{"type":"Buffer","data":[33,189,104,108,95,28,193,23,112,43,172,159,44,178,196,202,134,83,93,54]},"announce":[],"urlList":[]}}